<?xml version="1.0" encoding="iso-8859-1"?>
<!-- Uploaded to: SVG Repo, www.svgrepo.com, Generator: SVG Repo Mixer Tools -->
<svg version="1.1" id="Layer_1" xmlns="http://www.w3.org/2000/svg" xmlns:xlink="http://www.w3.org/1999/xlink" 
	 viewBox="0 0 512 512" xml:space="preserve">
<path d="M473.56,397.58V103.228c0-7.04-5.76-12.8-12.8-12.8H51.32c-7.04,0-12.8,5.76-12.8,12.8V397.58
	C38.528,397.58,474.632,397.58,473.56,397.58z"/>
<rect x="54.52" y="106.428" style="fill:#E21B1B;" width="403.04" height="275.152"/>
<rect y="397.58" style="fill:#D8D8D8;" width="511.912" height="8"/>
<polygon style="fill:#AAAAAA;" points="486.408,421.572 25.688,421.572 0.088,405.58 512,405.58 "/>
<g style="opacity:0.7;">
	<path style="fill:#FFFFFF;" d="M298.992,397.58H212.92c0.816,4.488,4.824,8,9.832,8h66.4
		C294.168,405.58,298.176,402.068,298.992,397.58z"/>
</g>
<g>
	<polygon style="fill:#FFFFFF;" points="128.944,311.5 116.944,300.908 211.128,194.26 293.144,277.452 365.64,195.324 
		377.64,205.924 293.784,300.908 211.768,217.692 	"/>
	<polygon style="fill:#FFFFFF;" points="342.536,192.036 395.048,177.964 380.976,230.476 	"/>
</g>
</svg>